<?xml version="1.0" encoding="UTF-8"?>
<!DOCTYPE svg PUBLIC "-//W3C//DTD SVG 1.1//EN" "http://www.w3.org/Graphics/SVG/1.1/DTD/svg11.dtd">
<svg xmlns="http://www.w3.org/2000/svg" version="1.1" width="1000px" height="1000px" style="shape-rendering:geometricPrecision; text-rendering:geometricPrecision; image-rendering:optimizeQuality; fill-rule:evenodd; clip-rule:evenodd" xmlns:xlink="http://www.w3.org/1999/xlink">
<g><path style="opacity:1" fill="#fefefe" d="M -0.5,-0.5 C 332.833,-0.5 666.167,-0.5 999.5,-0.5C 999.5,332.833 999.5,666.167 999.5,999.5C 666.167,999.5 332.833,999.5 -0.5,999.5C -0.5,666.167 -0.5,332.833 -0.5,-0.5 Z"/></g>
<g><path style="opacity:1" fill="#fb9d2f" d="M 285.5,286.5 C 284.833,286.5 284.5,286.167 284.5,285.5C 356.149,240.193 427.816,194.86 499.5,149.5C 576.359,197.531 652.359,245.865 727.5,294.5C 651.5,253.833 575.5,213.167 499.5,172.5C 428.43,211.034 357.097,249.034 285.5,286.5 Z"/></g>
<g><path style="opacity:1" fill="#fcb059" d="M 284.5,285.5 C 284.5,286.167 284.833,286.5 285.5,286.5C 281.732,289.225 277.732,291.725 273.5,294C 271.598,295.301 269.598,295.968 267.5,296C 273.195,292.489 278.861,288.989 284.5,285.5 Z"/></g>
<g><path style="opacity:1" fill="#2f72b9" d="M 472.5,375.5 C 471.402,376.397 471.402,377.23 472.5,378C 471.437,379.188 470.103,379.688 468.5,379.5C 466.473,379.662 464.473,379.495 462.5,379C 457,373.5 451.5,368 446,362.5C 445.167,359.333 446.333,358.167 449.5,359C 454.5,364 459.5,369 464.5,374C 467.014,375.252 469.68,375.752 472.5,375.5 Z"/></g>
<g><path style="opacity:1" fill="#4990ce" d="M 493.5,361.5 C 495.167,361.5 496.833,361.5 498.5,361.5C 498.351,366.937 496.351,367.771 492.5,364C 492.743,363.098 493.077,362.265 493.5,361.5 Z"/></g>
<g><path style="opacity:1" fill="#226bb5" d="M 507.5,361.5 C 507.5,362.833 507.5,364.167 507.5,365.5C 506.5,365.5 505.5,365.5 504.5,365.5C 502.965,362.67 503.965,361.337 507.5,361.5 Z"/></g>
<g><path style="opacity:1" fill="#2e8cce" d="M 540.5,378.5 C 540.784,376.585 540.451,374.919 539.5,373.5C 543.63,368.869 547.963,364.369 552.5,360C 554.607,359.146 555.941,359.812 556.5,362C 551.675,367.991 546.342,373.491 540.5,378.5 Z"/></g>
<g><path style="opacity:1" fill="#4995d1" d="M 483.5,362.5 C 487.138,361.737 488.638,363.07 488,366.5C 483.415,368.413 481.915,367.079 483.5,362.5 Z"/></g>
<g><path style="opacity:1" fill="#3a87c9" d="M 514.5,362.5 C 518.172,362.183 519.838,363.849 519.5,367.5C 514.585,368.59 512.919,366.923 514.5,362.5 Z"/></g>
<g><path style="opacity:1" fill="#79b6e1" d="M 507.5,361.5 C 509.273,362.314 509.773,363.648 509,365.5C 507.384,366.801 505.884,366.801 504.5,365.5C 505.5,365.5 506.5,365.5 507.5,365.5C 507.5,364.167 507.5,362.833 507.5,361.5 Z"/></g>
<g><path style="opacity:1" fill="#4792d0" d="M 473.5,365.5 C 478.303,365.09 479.303,366.59 476.5,370C 475.207,370.49 473.873,370.657 472.5,370.5C 472.366,368.708 472.699,367.042 473.5,365.5 Z"/></g>
<g><path style="opacity:1" fill="#3888ca" d="M 524.5,366.5 C 529.495,366.213 530.495,367.88 527.5,371.5C 524.194,370.913 523.194,369.247 524.5,366.5 Z"/></g>
<g><path style="opacity:1" fill="#306bb3" d="M 539.5,373.5 C 540.451,374.919 540.784,376.585 540.5,378.5C 536.837,380.595 532.837,382.095 528.5,383C 524.476,384.674 520.809,386.841 517.5,389.5C 517.784,387.585 517.451,385.919 516.5,384.5C 522.27,379.787 528.937,376.954 536.5,376C 537.373,374.955 538.373,374.122 539.5,373.5 Z"/></g>
<g><path style="opacity:1" fill="#2d4494" d="M 437.5,387.5 C 437.5,389.167 437.5,390.833 437.5,392.5C 433.188,388.854 429.188,384.854 425.5,380.5C 426.348,378.717 427.681,378.217 429.5,379C 432.371,381.703 435.038,384.536 437.5,387.5 Z"/></g>
<g><path style="opacity:1" fill="#2a9cdc" d="M 472.5,375.5 C 480.211,382.547 488.211,389.214 496.5,395.5C 498.337,399.853 497.504,403.52 494,406.5C 494.293,410.568 492.959,413.902 490,416.5C 490.066,421.386 487.899,424.72 483.5,426.5C 483.768,424.901 483.434,423.568 482.5,422.5C 484.07,420.149 484.903,417.482 485,414.5C 488.216,411.226 489.383,407.226 488.5,402.5C 490.948,402.915 492.281,401.915 492.5,399.5C 490.95,395.091 487.95,392.925 483.5,393C 483.043,393.414 482.709,393.914 482.5,394.5C 483.711,395.874 484.711,397.374 485.5,399C 485.355,399.772 485.022,400.439 484.5,401C 481.967,400.389 479.3,399.889 476.5,399.5C 476.146,402.421 477.146,404.754 479.5,406.5C 478.687,407.814 477.687,408.981 476.5,410C 479.31,413.568 478.977,416.734 475.5,419.5C 475.665,416.15 475.498,412.817 475,409.5C 473.698,408.915 472.531,408.249 471.5,407.5C 473.646,407.304 473.812,406.304 472,404.5C 471.333,402.5 471.333,400.5 472,398.5C 475.546,395.955 478.379,392.788 480.5,389C 477.123,384.761 473.123,381.594 468.5,379.5C 470.103,379.688 471.437,379.188 472.5,378C 471.402,377.23 471.402,376.397 472.5,375.5 Z"/></g>
<g><path style="opacity:1" fill="#304f9c" d="M 516.5,384.5 C 517.451,385.919 517.784,387.585 517.5,389.5C 514.746,391.053 513.913,393.386 515,396.5C 515.774,400.049 517.107,403.382 519,406.5C 519.671,407.252 520.504,407.586 521.5,407.5C 521.5,408.833 521.5,410.167 521.5,411.5C 519.801,411.66 518.134,411.494 516.5,411C 514.959,408.084 513.293,405.251 511.5,402.5C 509.167,404.167 507.167,406.167 505.5,408.5C 507.053,410.772 509.219,412.105 512,412.5C 512.466,417.623 515.3,419.79 520.5,419C 521.252,419.671 521.586,420.504 521.5,421.5C 521.768,423.099 521.434,424.432 520.5,425.5C 517.69,424.026 514.69,422.86 511.5,422C 509.513,420.681 508.346,418.848 508,416.5C 502.602,414.706 500.602,411.039 502,405.5C 504.333,403.167 506.667,400.833 509,398.5C 509.333,395.833 509.667,393.167 510,390.5C 512.037,388.294 514.203,386.294 516.5,384.5 Z"/></g>
<g><path style="opacity:1" fill="#f8fbfd" d="M 482.5,422.5 C 478.625,421.874 476.791,423.541 477,427.5C 475.951,428.517 474.784,428.684 473.5,428C 471.833,426.333 470.167,424.667 468.5,423C 470.86,421.82 473.193,420.653 475.5,419.5C 478.977,416.734 479.31,413.568 476.5,410C 477.687,408.981 478.687,407.814 479.5,406.5C 477.146,404.754 476.146,402.421 476.5,399.5C 479.3,399.889 481.967,400.389 484.5,401C 485.022,400.439 485.355,399.772 485.5,399C 484.711,397.374 483.711,395.874 482.5,394.5C 482.709,393.914 483.043,393.414 483.5,393C 487.95,392.925 490.95,395.091 492.5,399.5C 492.281,401.915 490.948,402.915 488.5,402.5C 489.383,407.226 488.216,411.226 485,414.5C 484.903,417.482 484.07,420.149 482.5,422.5 Z"/></g>
<g><path style="opacity:1" fill="#289ede" d="M 556.5,409.5 C 555.761,409.631 555.094,409.464 554.5,409C 554.598,407.715 554.598,406.549 554.5,405.5C 554.089,401.537 554.922,397.87 557,394.5C 561.833,389.667 566.667,384.833 571.5,380C 573.112,379.28 574.612,379.446 576,380.5C 576.667,381.167 576.667,381.833 576,382.5C 570.667,387.833 565.333,393.167 560,398.5C 559.667,401.5 559.333,404.5 559,407.5C 558.292,408.381 557.458,409.047 556.5,409.5 Z"/></g>
<g><path style="opacity:1" fill="#2365b0" d="M 533.5,399.5 C 531.167,399.5 528.833,399.5 526.5,399.5C 526.658,402.902 526.324,406.236 525.5,409.5C 524.395,410.6 523.062,411.267 521.5,411.5C 521.5,410.167 521.5,408.833 521.5,407.5C 523.246,403.035 522.579,399.035 519.5,395.5C 519.709,394.914 520.043,394.414 520.5,394C 523.697,393.999 526.863,394.499 530,395.5C 533.992,394.395 537.826,393.229 541.5,392C 542.86,393.938 542.527,395.604 540.5,397C 538.257,398.136 535.924,398.97 533.5,399.5 Z"/></g>
<g><path style="opacity:1" fill="#a0bcdc" d="M 533.5,399.5 C 531.735,400.461 529.735,400.795 527.5,400.5C 527.205,402.735 527.539,404.735 528.5,406.5C 527.833,407.833 526.833,408.833 525.5,409.5C 526.324,406.236 526.658,402.902 526.5,399.5C 528.833,399.5 531.167,399.5 533.5,399.5 Z"/></g>
<g><path style="opacity:1" fill="#3576bb" d="M 435.5,400.5 C 436.5,400.5 437.5,400.5 438.5,400.5C 438.5,402.167 438.5,403.833 438.5,405.5C 434.716,405.475 433.716,403.808 435.5,400.5 Z"/></g>
<g><path style="opacity:1" fill="#f5f7fb" d="M 521.5,411.5 C 523.062,411.267 524.395,410.6 525.5,409.5C 525.418,411.252 526.251,412.252 528,412.5C 530.21,410.889 532.71,410.222 535.5,410.5C 535.201,412.973 534.201,415.14 532.5,417C 533.098,418.301 534.098,419.135 535.5,419.5C 536.874,418.289 538.374,417.289 540,416.5C 541.5,416.667 542.333,417.5 542.5,419C 540.512,422.83 537.512,425.33 533.5,426.5C 532.886,424.277 531.552,422.611 529.5,421.5C 526.84,422.703 524.173,422.703 521.5,421.5C 521.586,420.504 521.252,419.671 520.5,419C 515.3,419.79 512.466,417.623 512,412.5C 509.219,412.105 507.053,410.772 505.5,408.5C 507.167,406.167 509.167,404.167 511.5,402.5C 513.293,405.251 514.959,408.084 516.5,411C 518.134,411.494 519.801,411.66 521.5,411.5 Z"/></g>
<g><path style="opacity:1" fill="#4f89c7" d="M 564.5,401.5 C 566.256,402.552 566.923,404.219 566.5,406.5C 565.5,406.5 564.5,406.5 563.5,406.5C 563.366,404.708 563.699,403.042 564.5,401.5 Z"/></g>
<g><path style="opacity:1" fill="#2785c9" d="M 471.5,407.5 C 472.531,408.249 473.698,408.915 475,409.5C 475.498,412.817 475.665,416.15 475.5,419.5C 473.193,420.653 470.86,421.82 468.5,423C 470.167,424.667 471.833,426.333 473.5,428C 474.784,428.684 475.951,428.517 477,427.5C 476.791,423.541 478.625,421.874 482.5,422.5C 483.434,423.568 483.768,424.901 483.5,426.5C 482.053,427.622 481.053,429.122 480.5,431C 477.88,433.271 474.88,433.938 471.5,433C 468.833,430.333 466.167,427.667 463.5,425C 461.362,425.559 459.362,425.392 457.5,424.5C 458.434,423.432 458.768,422.099 458.5,420.5C 464.01,419.666 469.01,417.666 473.5,414.5C 473.291,413.914 472.957,413.414 472.5,413C 468.738,412.073 465.238,412.573 462,414.5C 461.228,414.355 460.561,414.022 460,413.5C 460.152,410.51 460.652,407.51 461.5,404.5C 460.479,400.474 459.479,396.474 458.5,392.5C 462.344,393.17 464.844,395.504 466,399.5C 466.497,402.146 466.664,404.813 466.5,407.5C 468.167,407.5 469.833,407.5 471.5,407.5 Z"/></g>
<g><path style="opacity:1" fill="#2a77be" d="M 431.5,410.5 C 432.833,410.5 434.167,410.5 435.5,410.5C 435.99,412.948 435.157,414.615 433,415.5C 430.389,414.5 429.889,412.833 431.5,410.5 Z"/></g>
<g><path style="opacity:1" fill="#2a7fc4" d="M 554.5,405.5 C 554.598,406.549 554.598,407.715 554.5,409C 555.094,409.464 555.761,409.631 556.5,409.5C 553.871,412.631 551.038,415.631 548,418.5C 545.644,424.687 541.477,429.021 535.5,431.5C 535.635,429.446 534.968,427.779 533.5,426.5C 537.512,425.33 540.512,422.83 542.5,419C 542.333,417.5 541.5,416.667 540,416.5C 538.374,417.289 536.874,418.289 535.5,419.5C 534.098,419.135 533.098,418.301 532.5,417C 534.201,415.14 535.201,412.973 535.5,410.5C 532.71,410.222 530.21,410.889 528,412.5C 526.251,412.252 525.418,411.252 525.5,409.5C 526.833,408.833 527.833,407.833 528.5,406.5C 533.852,404.341 537.852,405.841 540.5,411C 542.167,411.833 543.833,412.667 545.5,413.5C 548.52,410.811 551.52,408.144 554.5,405.5 Z"/></g>
<g><path style="opacity:1" fill="#3377bd" d="M 566.5,410.5 C 570.35,410.701 571.35,412.534 569.5,416C 565.83,415.836 564.83,414.003 566.5,410.5 Z"/></g>
<g><path style="opacity:1" fill="#2e67b0" d="M 437.5,387.5 C 440.464,389.962 443.297,392.629 446,395.5C 448.066,404.966 452.233,413.299 458.5,420.5C 458.768,422.099 458.434,423.432 457.5,424.5C 453.88,422.715 451.047,420.048 449,416.5C 445.599,410.567 443.266,404.234 442,397.5C 440.293,395.963 438.793,394.296 437.5,392.5C 437.5,390.833 437.5,389.167 437.5,387.5 Z"/></g>
<g><path style="opacity:1" fill="#2482c7" d="M 568.5,421.5 C 569.833,421.5 571.167,421.5 572.5,421.5C 572.5,423.167 572.5,424.833 572.5,426.5C 571.167,426.5 569.833,426.5 568.5,426.5C 568.5,424.833 568.5,423.167 568.5,421.5 Z"/></g>
<g><path style="opacity:1" fill="#2e87ca" d="M 429.5,420.5 C 433.161,420.35 434.161,421.85 432.5,425C 431.207,425.49 429.873,425.657 428.5,425.5C 428.366,423.708 428.699,422.042 429.5,420.5 Z"/></g>
<g><path style="opacity:1" fill="#2967b0" d="M 521.5,421.5 C 524.173,422.703 526.84,422.703 529.5,421.5C 531.552,422.611 532.886,424.277 533.5,426.5C 534.968,427.779 535.635,429.446 535.5,431.5C 532.401,431.908 530.067,430.741 528.5,428C 525.478,427.902 522.811,427.068 520.5,425.5C 521.434,424.432 521.768,423.099 521.5,421.5 Z"/></g>
<g><path style="opacity:1" fill="#468ecc" d="M 428.5,430.5 C 432.35,430.701 433.35,432.534 431.5,436C 427.537,436.118 426.537,434.284 428.5,430.5 Z"/></g>
<g><path style="opacity:1" fill="#2f85c8" d="M 569.5,431.5 C 573.068,431.759 574.401,433.759 573.5,437.5C 572.167,437.5 570.833,437.5 569.5,437.5C 569.5,435.5 569.5,433.5 569.5,431.5 Z"/></g>
<g><path style="opacity:1" fill="#f5f7fb" d="M 526.5,439.5 C 528.63,441.127 530.63,442.96 532.5,445C 529.582,446.709 526.748,448.542 524,450.5C 523.022,453.669 523.522,456.503 525.5,459C 520.985,459.849 520.485,461.682 524,464.5C 524.725,469.719 523.225,470.553 519.5,467C 517.393,466.146 516.059,466.812 515.5,469C 516.5,470.667 517.5,472.333 518.5,474C 518.252,475.749 517.252,476.582 515.5,476.5C 511.369,474.246 509.203,470.912 509,466.5C 510.845,465.95 512.345,464.95 513.5,463.5C 511.715,459.848 512.382,456.848 515.5,454.5C 514.772,448.33 517.438,445.33 523.5,445.5C 523.34,443.801 523.506,442.134 524,440.5C 524.671,439.748 525.504,439.414 526.5,439.5 Z"/></g>
<g><path style="opacity:1" fill="#327bc0" d="M 428.5,441.5 C 429.833,441.5 431.167,441.5 432.5,441.5C 432.949,443.977 432.283,445.977 430.5,447.5C 428.717,445.977 428.051,443.977 428.5,441.5 Z"/></g>
<g><path style="opacity:1" fill="#f4f9fc" d="M 466.5,441.5 C 467.947,442.622 468.947,444.122 469.5,446C 473.902,444.35 477.568,445.35 480.5,449C 482.5,449.333 484.5,449.667 486.5,450C 487.381,450.708 488.047,451.542 488.5,452.5C 488.351,453.552 488.517,454.552 489,455.5C 491.268,456.76 493.434,458.094 495.5,459.5C 493.851,461.65 492.018,463.65 490,465.5C 489.617,464.944 489.117,464.611 488.5,464.5C 486.597,456.892 482.264,454.892 475.5,458.5C 475.582,456.748 474.749,455.748 473,455.5C 471.333,456.5 469.667,457.5 468,458.5C 465.812,457.941 465.146,456.607 466,454.5C 469.489,452.262 469.323,450.595 465.5,449.5C 461.643,453.815 459.477,453.148 459,447.5C 461.106,444.882 463.606,442.882 466.5,441.5 Z"/></g>
<g><path style="opacity:1" fill="#2773ba" d="M 463.5,437.5 C 464.5,437.5 465.5,437.5 466.5,437.5C 466.5,438.833 466.5,440.167 466.5,441.5C 463.606,442.882 461.106,444.882 459,447.5C 459.477,453.148 461.643,453.815 465.5,449.5C 469.323,450.595 469.489,452.262 466,454.5C 465.146,456.607 465.812,457.941 468,458.5C 469.667,457.5 471.333,456.5 473,455.5C 474.749,455.748 475.582,456.748 475.5,458.5C 474.662,458.842 474.328,459.508 474.5,460.5C 468.633,464.019 463.966,462.852 460.5,457C 458.579,456.64 456.912,455.806 455.5,454.5C 453.481,456.19 451.481,457.856 449.5,459.5C 448.402,458.603 448.402,457.77 449.5,457C 448.552,456.517 447.552,456.351 446.5,456.5C 449.581,453.588 452.081,450.254 454,446.5C 457.036,443.296 460.203,440.296 463.5,437.5 Z"/></g>
<g><path style="opacity:1" fill="#2191d4" d="M 463.5,437.5 C 466.959,435.968 469.959,436.801 472.5,440C 477.051,439.776 480.718,441.443 483.5,445C 485.586,445.315 487.586,445.815 489.5,446.5C 489.795,448.735 489.461,450.735 488.5,452.5C 488.047,451.542 487.381,450.708 486.5,450C 484.5,449.667 482.5,449.333 480.5,449C 477.568,445.35 473.902,444.35 469.5,446C 468.947,444.122 467.947,442.622 466.5,441.5C 466.5,440.167 466.5,438.833 466.5,437.5C 465.5,437.5 464.5,437.5 463.5,437.5 Z"/></g>
<g><path style="opacity:1" fill="#3d8acb" d="M 568.5,442.5 C 569.833,442.5 571.167,442.5 572.5,442.5C 572.949,444.977 572.283,446.977 570.5,448.5C 567.513,447.205 566.846,445.205 568.5,442.5 Z"/></g>
<g><path style="opacity:1" fill="#2a69b2" d="M 525.5,435.5 C 527.089,434.379 528.756,434.546 530.5,436C 532.833,438.333 535.167,440.667 537.5,443C 539.473,443.495 541.473,443.662 543.5,443.5C 542.829,444.847 542.829,446.014 543.5,447C 541.942,447.21 540.609,447.71 539.5,448.5C 534.874,448.98 530.874,450.813 527.5,454C 531.583,456.084 535.583,455.917 539.5,453.5C 540.086,453.709 540.586,454.043 541,454.5C 541.054,457.865 540.554,461.199 539.5,464.5C 540.015,467.863 541.348,470.863 543.5,473.5C 540.918,477.489 538.751,477.156 537,472.5C 535.734,468.605 535.234,464.605 535.5,460.5C 532.753,460.187 530.086,460.52 527.5,461.5C 530.614,467.161 529.28,471.494 523.5,474.5C 522.696,475.941 522.029,477.441 521.5,479C 524.251,483.935 528.251,487.102 533.5,488.5C 534.048,489.688 534.381,490.855 534.5,492C 532.527,492.495 530.527,492.662 528.5,492.5C 523.56,489.23 519.227,485.23 515.5,480.5C 516.686,479.295 516.686,477.961 515.5,476.5C 517.252,476.582 518.252,475.749 518.5,474C 517.5,472.333 516.5,470.667 515.5,469C 516.059,466.812 517.393,466.146 519.5,467C 523.225,470.553 524.725,469.719 524,464.5C 520.485,461.682 520.985,459.849 525.5,459C 523.522,456.503 523.022,453.669 524,450.5C 526.748,448.542 529.582,446.709 532.5,445C 530.63,442.96 528.63,441.127 526.5,439.5C 526.768,437.901 526.434,436.568 525.5,435.5 Z"/></g>
<g><path style="opacity:1" fill="#398ccc" d="M 431.5,451.5 C 435.35,451.701 436.35,453.534 434.5,457C 430.83,456.836 429.83,455.003 431.5,451.5 Z"/></g>
<g><path style="opacity:1" fill="#2cabe8" d="M 489.5,446.5 C 491.67,449.809 494.504,452.475 498,454.5C 500.77,457.242 501.104,460.242 499,463.5C 496.667,465.833 494.333,468.167 492,470.5C 491.667,473.167 491.333,475.833 491,478.5C 490.617,479.056 490.117,479.389 489.5,479.5C 489.554,474.17 489.221,469.17 488.5,464.5C 489.117,464.611 489.617,464.944 490,465.5C 492.018,463.65 493.851,461.65 495.5,459.5C 493.434,458.094 491.268,456.76 489,455.5C 488.517,454.552 488.351,453.552 488.5,452.5C 489.461,450.735 489.795,448.735 489.5,446.5 Z"/></g>
<g><path style="opacity:1" fill="#3383c6" d="M 566.5,452.5 C 571.161,453.324 571.661,455.324 568,458.5C 565.327,457.142 564.827,455.142 566.5,452.5 Z"/></g>
<g><path style="opacity:1" fill="#2792d4" d="M 488.5,464.5 C 489.221,469.17 489.554,474.17 489.5,479.5C 482.762,486.653 474.429,490.986 464.5,492.5C 464.843,490.517 464.176,489.183 462.5,488.5C 468.174,486.659 473.84,484.493 479.5,482C 487.843,476.904 488.843,470.404 482.5,462.5C 481.675,461.614 480.675,461.281 479.5,461.5C 479.044,465.602 479.711,469.435 481.5,473C 481.355,473.772 481.022,474.439 480.5,475C 477.297,474.264 473.964,473.764 470.5,473.5C 468.833,473.667 467.167,473.833 465.5,474C 463.611,476.194 461.444,476.694 459,475.5C 459.643,472.187 461.809,470.02 465.5,469C 468.482,468.502 471.482,468.335 474.5,468.5C 474.5,465.833 474.5,463.167 474.5,460.5C 474.328,459.508 474.662,458.842 475.5,458.5C 482.264,454.892 486.597,456.892 488.5,464.5 Z"/></g>
<g><path style="opacity:1" fill="#2e76bd" d="M 435.5,461.5 C 436.788,463.035 436.788,464.701 435.5,466.5C 434.334,464.833 434.334,463.166 435.5,461.5 Z"/></g>
<g><path style="opacity:1" fill="#3183c6" d="M 562.5,462.5 C 566.161,462.35 567.161,463.85 565.5,467C 564.552,467.483 563.552,467.649 562.5,467.5C 562.5,465.833 562.5,464.167 562.5,462.5 Z"/></g>
<g><path style="opacity:1" fill="#1d95d8" d="M 543.5,443.5 C 552.234,450.283 557.4,459.283 559,470.5C 564.333,475.833 569.667,481.167 575,486.5C 575.345,488.201 574.678,489.534 573,490.5C 567,484.5 561,478.5 555,472.5C 553.642,463.408 549.808,455.575 543.5,449C 542.207,448.51 540.873,448.343 539.5,448.5C 540.609,447.71 541.942,447.21 543.5,447C 542.829,446.014 542.829,444.847 543.5,443.5 Z"/></g>
<g><path style="opacity:1" fill="#324c99" d="M 525.5,435.5 C 526.434,436.568 526.768,437.901 526.5,439.5C 525.504,439.414 524.671,439.748 524,440.5C 523.506,442.134 523.34,443.801 523.5,445.5C 517.438,445.33 514.772,448.33 515.5,454.5C 512.382,456.848 511.715,459.848 513.5,463.5C 512.345,464.95 510.845,465.95 509,466.5C 509.203,470.912 511.369,474.246 515.5,476.5C 516.686,477.961 516.686,479.295 515.5,480.5C 509.177,478.843 505.177,474.843 503.5,468.5C 506.088,460.66 509.254,452.994 513,445.5C 514.571,443.077 516.737,441.744 519.5,441.5C 519.833,437.833 521.833,435.833 525.5,435.5 Z"/></g>
<g><path style="opacity:1" fill="#37529d" d="M 446.5,456.5 C 447.552,456.351 448.552,456.517 449.5,457C 448.402,457.77 448.402,458.603 449.5,459.5C 446.824,463.302 445.324,467.635 445,472.5C 439.5,478 434,483.5 428.5,489C 427.833,489.667 427.167,489.667 426.5,489C 425.446,487.612 425.28,486.112 426,484.5C 430.681,479.651 435.515,474.985 440.5,470.5C 440.288,464.721 442.288,460.054 446.5,456.5 Z"/></g>
<g><path style="opacity:1" fill="#3083c6" d="M 533.5,488.5 C 535.564,488.687 537.564,489.187 539.5,490C 544.667,495.167 549.833,500.333 555,505.5C 555.833,508.667 554.667,509.833 551.5,509C 546.5,504 541.5,499 536.5,494C 533.635,493.817 530.969,493.317 528.5,492.5C 530.527,492.662 532.527,492.495 534.5,492C 534.381,490.855 534.048,489.688 533.5,488.5 Z"/></g>
<g><path style="opacity:1" fill="#2a81c6" d="M 524.5,497.5 C 528.161,497.35 529.161,498.85 527.5,502C 526.207,502.49 524.873,502.657 523.5,502.5C 523.366,500.708 523.699,499.042 524.5,497.5 Z"/></g>
<g><path style="opacity:1" fill="#2267b1" d="M 462.5,488.5 C 464.176,489.183 464.843,490.517 464.5,492.5C 459.035,497.464 453.702,502.63 448.5,508C 445.866,508.925 444.699,508.091 445,505.5C 450.702,499.63 456.535,493.964 462.5,488.5 Z"/></g>
<g><path style="opacity:1" fill="#4392d0" d="M 471.5,497.5 C 473.199,497.34 474.866,497.506 476.5,498C 478.167,501.333 477.167,502.667 473.5,502C 471.963,500.89 471.297,499.39 471.5,497.5 Z"/></g>
<g><path style="opacity:1" fill="#3179be" d="M 482.5,500.5 C 485.757,500.174 487.257,501.507 487,504.5C 482.415,506.413 480.915,505.079 482.5,500.5 Z"/></g>
<g><path style="opacity:1" fill="#2974bb" d="M 514.5,500.5 C 518.161,500.35 519.161,501.85 517.5,505C 516.207,505.49 514.873,505.657 513.5,505.5C 513.366,503.708 513.699,502.042 514.5,500.5 Z"/></g>
<g><path style="opacity:1" fill="#2b7cc2" d="M 503.5,502.5 C 506.95,501.756 508.616,503.09 508.5,506.5C 506.5,506.5 504.5,506.5 502.5,506.5C 502.433,505.041 502.766,503.708 503.5,502.5 Z"/></g>
<g><path style="opacity:1" fill="#246fb8" d="M 492.5,502.5 C 494.167,502.5 495.833,502.5 497.5,502.5C 497.5,503.833 497.5,505.167 497.5,506.5C 495.833,506.5 494.167,506.5 492.5,506.5C 492.5,505.167 492.5,503.833 492.5,502.5 Z"/></g>
<g><path style="opacity:1" fill="#137dc5" d="M 293.5,559.5 C 279.5,559.5 265.5,559.5 251.5,559.5C 251.172,571.678 251.505,583.678 252.5,595.5C 263.167,595.5 273.833,595.5 284.5,595.5C 284.5,596.5 284.5,597.5 284.5,598.5C 273.5,598.5 262.5,598.5 251.5,598.5C 251.5,610.833 251.5,623.167 251.5,635.5C 265.833,635.5 280.167,635.5 294.5,635.5C 294.5,636.5 294.5,637.5 294.5,638.5C 279.167,638.5 263.833,638.5 248.5,638.5C 248.5,611.167 248.5,583.833 248.5,556.5C 263.5,556.5 278.5,556.5 293.5,556.5C 293.5,557.5 293.5,558.5 293.5,559.5 Z"/></g>
<g><path style="opacity:1" fill="#3388ca" d="M 306.5,556.5 C 317.544,556.181 328.544,556.681 339.5,558C 360.487,566.345 369.987,581.845 368,604.5C 363.783,624.385 351.617,635.552 331.5,638C 323.173,638.5 314.84,638.666 306.5,638.5C 306.5,611.167 306.5,583.833 306.5,556.5 Z"/></g>
<g><path style="opacity:1" fill="#3a8bcb" d="M 379.5,556.5 C 380.833,556.5 382.167,556.5 383.5,556.5C 383.046,577.554 383.546,598.554 385,619.5C 392.442,636.208 404.609,640.708 421.5,633C 426.252,629.586 429.419,625.086 431,619.5C 432.454,598.554 432.954,577.554 432.5,556.5C 433.833,556.5 435.167,556.5 436.5,556.5C 436.929,577.54 436.429,598.54 435,619.5C 428.639,636.6 416.472,643.1 398.5,639C 389.166,635.665 383.333,629.165 381,619.5C 379.571,598.54 379.071,577.54 379.5,556.5 Z"/></g>
<g><path style="opacity:1" fill="#1b7fc5" d="M 569.5,556.5 C 605.015,555.847 621.515,573.18 619,608.5C 610.344,632.915 593.177,643.082 567.5,639C 549.239,634.072 538.739,622.238 536,603.5C 534.88,579.072 546.047,563.405 569.5,556.5 Z"/></g>
<g><path style="opacity:1" fill="#53a0d4" d="M 687.5,558.5 C 668.5,558.5 649.5,558.5 630.5,558.5C 630.5,563.167 630.5,567.833 630.5,572.5C 637.354,572.176 644.021,572.509 650.5,573.5C 643.5,573.5 636.5,573.5 629.5,573.5C 629.5,568.167 629.5,562.833 629.5,557.5C 649.007,557.17 668.341,557.503 687.5,558.5 Z"/></g>
<g><path style="opacity:1" fill="#157dc5" d="M 506.5,558.5 C 511.833,558.5 517.167,558.5 522.5,558.5C 522.5,585.167 522.5,611.833 522.5,638.5C 518.5,638.5 514.5,638.5 510.5,638.5C 497.167,622.167 483.833,605.833 470.5,589.5C 469.501,605.089 469.168,621.422 469.5,638.5C 464.167,638.5 458.833,638.5 453.5,638.5C 453.5,611.5 453.5,584.5 453.5,557.5C 457.846,557.334 462.179,557.501 466.5,558C 479.667,574.5 492.833,591 506,607.5C 506.5,591.17 506.667,574.837 506.5,558.5 Z"/></g>
<g><path style="opacity:1" fill="#3e91ce" d="M 506.5,558.5 C 511.975,557.511 517.642,557.178 523.5,557.5C 523.5,584.833 523.5,612.167 523.5,639.5C 518.968,639.818 514.634,639.485 510.5,638.5C 514.5,638.5 518.5,638.5 522.5,638.5C 522.5,611.833 522.5,585.167 522.5,558.5C 517.167,558.5 511.833,558.5 506.5,558.5 Z"/></g>
<g><path style="opacity:1" fill="#147dc5" d="M 687.5,558.5 C 687.5,563.5 687.5,568.5 687.5,573.5C 680.833,573.5 674.167,573.5 667.5,573.5C 666.503,594.994 666.169,616.66 666.5,638.5C 661.167,638.5 655.833,638.5 650.5,638.5C 650.5,616.833 650.5,595.167 650.5,573.5C 644.021,572.509 637.354,572.176 630.5,572.5C 630.5,567.833 630.5,563.167 630.5,558.5C 649.5,558.5 668.5,558.5 687.5,558.5 Z"/></g>
<g><path style="opacity:1" fill="#98c6e5" d="M 699.5,557.5 C 699.5,584.5 699.5,611.5 699.5,638.5C 716.5,638.5 733.5,638.5 750.5,638.5C 733.341,639.497 716.008,639.83 698.5,639.5C 698.169,611.995 698.502,584.662 699.5,557.5 Z"/></g>
<g><path style="opacity:1" fill="#197ec5" d="M 699.5,557.5 C 716.167,557.5 732.833,557.5 749.5,557.5C 749.5,562.833 749.5,568.167 749.5,573.5C 738.5,573.5 727.5,573.5 716.5,573.5C 716.5,579.167 716.5,584.833 716.5,590.5C 724.833,590.5 733.167,590.5 741.5,590.5C 741.5,595.5 741.5,600.5 741.5,605.5C 733.167,605.5 724.833,605.5 716.5,605.5C 716.5,611.5 716.5,617.5 716.5,623.5C 727.833,623.5 739.167,623.5 750.5,623.5C 750.5,628.5 750.5,633.5 750.5,638.5C 733.5,638.5 716.5,638.5 699.5,638.5C 699.5,611.5 699.5,584.5 699.5,557.5 Z"/></g>
<g><path style="opacity:1" fill="#aad0ea" d="M 293.5,559.5 C 280.01,560.496 266.344,560.829 252.5,560.5C 252.5,572.167 252.5,583.833 252.5,595.5C 251.505,583.678 251.172,571.678 251.5,559.5C 265.5,559.5 279.5,559.5 293.5,559.5 Z"/></g>
<g><path style="opacity:1" fill="#fdfefe" d="M 310.5,559.5 C 319.213,559.248 327.88,559.748 336.5,561C 354.86,566.211 364.193,578.377 364.5,597.5C 363.65,618.854 352.65,631.354 331.5,635C 324.508,635.5 317.508,635.666 310.5,635.5C 310.5,610.167 310.5,584.833 310.5,559.5 Z"/></g>
<g><path style="opacity:1" fill="#fcfdfe" d="M 571.5,572.5 C 593.414,571.915 603.581,582.582 602,604.5C 594.639,622.958 581.806,628.125 563.5,620C 553.179,610.288 550.679,598.788 556,585.5C 559.845,579.479 565.012,575.146 571.5,572.5 Z"/></g>
<g><path style="opacity:1" fill="#6fafdb" d="M 470.5,589.5 C 470.5,606.167 470.5,622.833 470.5,639.5C 464.642,639.822 458.975,639.489 453.5,638.5C 458.833,638.5 464.167,638.5 469.5,638.5C 469.168,621.422 469.501,605.089 470.5,589.5 Z"/></g>
<g><path style="opacity:1" fill="#92c3e4" d="M 284.5,595.5 C 285.434,596.568 285.768,597.901 285.5,599.5C 274.5,599.5 263.5,599.5 252.5,599.5C 252.5,611.167 252.5,622.833 252.5,634.5C 266.677,634.171 280.677,634.504 294.5,635.5C 280.167,635.5 265.833,635.5 251.5,635.5C 251.5,623.167 251.5,610.833 251.5,598.5C 262.5,598.5 273.5,598.5 284.5,598.5C 284.5,597.5 284.5,596.5 284.5,595.5 Z"/></g>
<g><path style="opacity:1" fill="#5ca4d6" d="M 667.5,573.5 C 667.5,595.5 667.5,617.5 667.5,639.5C 661.642,639.822 655.975,639.489 650.5,638.5C 655.833,638.5 661.167,638.5 666.5,638.5C 666.169,616.66 666.503,594.994 667.5,573.5 Z"/></g>
<g><path style="opacity:1" fill="#fdc380" d="M 725.5,662.5 C 726.254,660.554 727.588,659.721 729.5,660C 728.529,661.481 727.196,662.315 725.5,662.5 Z"/></g>
<g><path style="opacity:1" fill="#fdc380" d="M 272.5,672.5 C 270.804,672.315 269.471,671.481 268.5,670C 270.412,669.721 271.746,670.554 272.5,672.5 Z"/></g>
<g><path style="opacity:1" fill="#fb9e2f" d="M 725.5,662.5 C 650.237,724.815 574.904,787.148 499.5,849.5C 423.583,790.722 347.917,731.722 272.5,672.5C 347.976,723.741 423.642,774.741 499.5,825.5C 574.845,771.151 650.178,716.818 725.5,662.5 Z"/></g>
</svg>
