<svg version="1.1" id="Layer_1" xmlns="http://www.w3.org/2000/svg" xmlns:xlink="http://www.w3.org/1999/xlink" x="0px" y="0px" viewBox="0 0 54 54" style="enable-background:new 0 0 512 512;" xml:space="preserve" width="54" height="54">
  <g>
    <g>
      <path fill="#29638a" d="m53.98 34.22 -3.782 -20.67c-0.23 -1.256 -1.243 -2.159 -2.426 -2.159h-4.279c-1.181 0 -2.197 0.906 -2.426 2.159l-0.853 4.659 0.257 -0.017 3.463 -3.508 -3.1 5.412 -6.255 0.416 -11.788 -5.589a0.833 0.833 0 0 0 -0.714 1.505l10.605 5.028a1.913 1.913 0 0 0 -0.278 1.128c0.071 1.064 0.994 1.864 2.047 1.791l7.667 -0.509a1.923 1.923 0 0 0 1.541 -0.963l3.612 -6.306 -1.943 7.262c-0.288 1.074 -1.224 1.802 -2.275 1.873 -1.045 0.069 -0.204 0.013 -4.267 0.283l-1.501 8.206c-0.129 0.706 0.371 1.36 1.032 1.36h3.072v14.637c0 1.357 1.1 2.457 2.457 2.457 1.357 0 2.457 -1.1 2.457 -2.457V35.58h1.482v14.637a3.916 3.916 0 0 1 -0.724 2.272 2.447 2.447 0 0 0 0.937 0.186c1.357 0 2.458 -1.1 2.458 -2.458V35.58h2.493c0.659 0 1.16 -0.655 1.032 -1.36"/>
    </g>
  </g>
  <g>
    <g>
      <path fill="#29638a" cx="432.662" cy="52.813" r="40.242" d="M49.877 5.57A4.244 4.244 0 0 1 45.632 9.814A4.244 4.244 0 0 1 41.388 5.57A4.244 4.244 0 0 1 49.877 5.57z"/>
    </g>
  </g>
  <g>
    <g>
      <path fill="#29638a" cx="133.941" cy="117.327" r="42.024" d="M18.559 12.374A4.432 4.432 0 0 1 14.127 16.807A4.432 4.432 0 0 1 9.694 12.374A4.432 4.432 0 0 1 18.559 12.374z"/>
    </g>
  </g>
  <g>
    <g>
      <path fill="#29638a" d="m21.785 24.052 -6.069 0.177 -3.856 -5.45 4.436 3.735v-2.758c0 -0.653 -0.205 -1.254 -0.551 -1.735a5.854 5.854 0 0 1 -1.619 0.229c-1.419 0 -2.723 -0.506 -3.739 -1.347H8.871c-0.871 0 -1.475 0.605 -2.132 1.138 -2.032 1.648 -6.084 5.336 -6.084 5.336 -0.969 0.85 -0.843 2.397 0.251 3.079l5.297 3.3v2.511c0 0.909 0.57 1.682 1.371 1.988v16.196c0 1.228 0.996 2.223 2.223 2.223s2.223 -0.996 2.223 -2.223V34.396h1.729v16.055c0 0.737 -0.202 1.427 -0.554 2.018a2.215 2.215 0 0 0 0.93 0.206c1.228 0 2.223 -0.996 2.223 -2.223l-0.054 -21.04c-1.424 0.042 -1.389 0.041 -1.47 0.041 -1.563 0 -2.697 -1.061 -2.995 -1.794l-2.696 -6.651 4.257 6.018 0 0a1.759 1.759 0 0 0 1.484 0.74l7.01 -0.205c0.986 -0.028 1.731 -0.857 1.703 -1.806v-0.001c-0.026 -0.887 -0.731 -1.702 -1.806 -1.702M6.203 25.224l-1.064 -0.663 1.064 -0.933z"/>
    </g>
  </g>
</svg>
