<svg width="54" height="54" viewBox="0 0 52 52" xmlns="http://www.w3.org/2000/svg" fill="#29638a">
  <path d="M41.4 39.7l-0.9 0.9c-1 1-2.3 1.5-3.7 1.5h-2.6c-2.4 0-5-1.9-5-5.2v-2.5c0-2 0.9-3.2 1.4-3.9l10.8-11c0.3-0.3 0.6-1 0.6-1.4V9.8c0-2.6-2.2-4.8-4.8-4.8H11.6c-2.6 0-4.8 2.2-4.8 4.8h-1.6c-1.8 0-3.2 1.4-3.2 3.2s1.4 3.2 3.2 3.2h1.6v6.5H5.2c-1.8 0-3.2 1.4-3.2 3.2s1.4 3.2 3.2 3.2h1.6v6.5H5.2c-1.8 0-3.2 1.5-3.2 3.2s1.4 3.2 3.2 3.2h1.6c0 3.2 2.2 4.8 4.8 4.8H30h7.2c2.6 0 4.8-2.2 4.8-4.8V40c0-0.3-0.2-0.4-0.6-0.1zM33.2 17.1c0 0.9-0.7 1.6-1.6 1.6h-16c-0.9 0-1.6-0.7-1.6-1.6v-1.6c0-0.9 0.7-1.6 1.6-1.6h16c0.9 0 1.6 0.7 1.6 1.6V17.1zM26 36.5c0 0.9-0.7 1.6-1.6 1.6h-8.8c-0.9 0-1.6-0.7-1.6-1.6v-1.6c0-0.9 0.7-1.6 1.6-1.6h8.8c0.9 0 1.6 0.7 1.6 1.6V36.5zM28.4 26.8c0 0.9-0.7 1.6-1.6 1.6H15.6c-0.9 0-1.6-0.7-1.6-1.6v-1.6c0-0.9 0.7-1.6 1.6-1.6h11.2c0.9 0 1.6 0.7 1.6 1.6V26.8z"/>
  <path d="M49.5 22.4l-1-1c-0.6-0.6-1.6-0.6-2.2 0L34.1 34c-0.2 0-0.2 0.2-0.2 0.4v2.7c0.2 0 0.2 0.2 0.3 0.2h2.6c0.1 0 0.2-0.1 0.3-0.1l12.3-12.4c0.6-0.6 0.6-1.6 0-2.2z"/>
</svg>
