<svg width="54px" height="54px" viewBox="0 0 1.62 1.62" xmlns="http://www.w3.org/2000/svg"><g fill="none" fill-rule="evenodd"><path fill="#29638a" fill-rule="nonzero" d="M0.675 0.304a0.034 0.034 0 0 1 -0.068 0A0.101 0.101 0 0 1 0.709 0.203h0.203A0.101 0.101 0 0 1 1.013 0.304a0.034 0.034 0 1 1 -0.068 0 0.034 0.034 0 0 0 -0.034 -0.034h-0.203a0.034 0.034 0 0 0 -0.034 0.034M0.439 0.27a0.034 0.034 0 0 1 0 0.068A0.101 0.101 0 0 0 0.338 0.439v0.81A0.101 0.101 0 0 0 0.439 1.35h0.743a0.101 0.101 0 0 0 0.101 -0.101v-0.81A0.101 0.101 0 0 0 1.181 0.338a0.034 0.034 0 1 1 0 -0.068A0.169 0.169 0 0 1 1.35 0.439v0.81a0.169 0.169 0 0 1 -0.169 0.169h-0.743A0.169 0.169 0 0 1 0.27 1.249v-0.81A0.169 0.169 0 0 1 0.439 0.27"/><path fill="#29638a" fill-rule="nonzero" d="M1.022 0.617a0.034 0.034 0 0 1 0.048 0.048l-0.338 0.338a0.034 0.034 0 0 1 -0.048 0l-0.135 -0.135a0.034 0.034 0 0 1 0.048 -0.048l0.111 0.111z"/></g></svg>